<svg width="45" height="45" viewBox="0 0 45 45" fill="none" xmlns="http://www.w3.org/2000/svg">
<path d="M35.9016 34.411C36.0052 34.5076 36.0884 34.624 36.146 34.7534C36.2036 34.8827 36.2346 35.0224 36.2371 35.164C36.2396 35.3056 36.2136 35.4463 36.1605 35.5776C36.1075 35.7089 36.0285 35.8282 35.9284 35.9284C35.8282 36.0285 35.7089 36.1075 35.5776 36.1605C35.4463 36.2136 35.3056 36.2396 35.164 36.2371C35.0224 36.2346 34.8827 36.2036 34.7534 36.146C34.624 36.0884 34.5076 36.0052 34.411 35.9016L22.5001 23.9924L10.5891 35.9016C10.3892 36.0879 10.1247 36.1893 9.85151 36.1845C9.57828 36.1797 9.31758 36.069 9.12434 35.8758C8.9311 35.6825 8.82041 35.4218 8.81559 35.1486C8.81077 34.8754 8.9122 34.6109 9.0985 34.411L21.0077 22.5001L9.0985 10.5891C8.9122 10.3892 8.81077 10.1247 8.81559 9.85151C8.82041 9.57828 8.9311 9.31758 9.12434 9.12434C9.31758 8.9311 9.57828 8.82041 9.85151 8.81559C10.1247 8.81077 10.3892 8.9122 10.5891 9.0985L22.5001 21.0077L34.411 9.0985C34.6109 8.9122 34.8754 8.81077 35.1486 8.81559C35.4218 8.82041 35.6825 8.9311 35.8758 9.12434C36.069 9.31758 36.1797 9.57828 36.1845 9.85151C36.1893 10.1247 36.0879 10.3892 35.9016 10.5891L23.9924 22.5001L35.9016 34.411Z" fill="white"/>
</svg>
