<svg width="35" height="35" viewBox="0 0 35 35" fill="none" xmlns="http://www.w3.org/2000/svg">
<g clip-path="url(#clip0_953_160)">
<path d="M17.5 1.25V3.75V1.25ZM17.5 31.25V33.75V31.25ZM31.25 17.5H33.75H31.25ZM27.225 27.225L29 29L27.225 27.225ZM27.225 7.775L29 6L27.225 7.775ZM17.5 8.75C19.8206 8.75 22.0462 9.67187 23.6872 11.3128C25.3281 12.9538 26.25 15.1794 26.25 17.5C26.25 19.8206 25.3281 22.0462 23.6872 23.6872C22.0462 25.3281 19.8206 26.25 17.5 26.25V8.75ZM3.75 17.5H1.25H3.75ZM7.775 27.225L6 29L7.775 27.225ZM7.775 7.775L6 6L7.775 7.775Z" fill="#F9F374"/>
<path d="M17.5 1.25V3.75M17.5 31.25V33.75M31.25 17.5H33.75M27.225 27.225L29 29M27.225 7.775L29 6M3.75 17.5H1.25M7.775 27.225L6 29M7.775 7.775L6 6M17.5 8.75C19.8206 8.75 22.0462 9.67187 23.6872 11.3128C25.3281 12.9538 26.25 15.1794 26.25 17.5C26.25 19.8206 25.3281 22.0462 23.6872 23.6872C22.0462 25.3281 19.8206 26.25 17.5 26.25V8.75Z" stroke="#646464" stroke-linecap="round" stroke-linejoin="round"/>
</g>
<defs>
<clipPath id="clip0_953_160">
<rect width="35" height="35" fill="white" transform="matrix(-1 0 0 1 35 0)"/>
</clipPath>
</defs>
</svg>
