<svg width="25" height="25" viewBox="0 0 25 25" fill="none" xmlns="http://www.w3.org/2000/svg">
<path d="M12.5 9.76562C11.9592 9.76562 11.4305 9.92599 10.9809 10.2265C10.5312 10.5269 10.1807 10.954 9.97377 11.4536C9.76681 11.9532 9.71266 12.503 9.81817 13.0334C9.92367 13.5639 10.1841 14.0511 10.5665 14.4335C10.9489 14.8159 11.4361 15.0763 11.9666 15.1818C12.497 15.2873 13.0468 15.2332 13.5464 15.0262C14.046 14.8193 14.4731 14.4688 14.7736 14.0191C15.074 13.5695 15.2344 13.0408 15.2344 12.5C15.2344 11.7748 14.9463 11.0793 14.4335 10.5665C13.9207 10.0537 13.2252 9.76562 12.5 9.76562ZM12.5 14.4531C12.1137 14.4531 11.7361 14.3386 11.4149 14.124C11.0937 13.9094 10.8434 13.6043 10.6955 13.2474C10.5477 12.8905 10.509 12.4978 10.5844 12.119C10.6598 11.7401 10.8458 11.3921 11.1189 11.1189C11.3921 10.8458 11.7401 10.6598 12.119 10.5844C12.4978 10.509 12.8905 10.5477 13.2474 10.6955C13.6043 10.8434 13.9094 11.0937 14.124 11.4149C14.3386 11.7361 14.4531 12.1137 14.4531 12.5C14.4531 13.018 14.2474 13.5148 13.8811 13.8811C13.5148 14.2473 13.018 14.4531 12.5 14.4531Z" fill="#B06DCF"/>
</svg>
