<svg width="20" height="20" viewBox="0 0 20 20" fill="none" xmlns="http://www.w3.org/2000/svg">
<path d="M7.08341 7.49996C6.97291 7.49996 6.86693 7.45606 6.78879 7.37792C6.71065 7.29978 6.66675 7.1938 6.66675 7.08329C6.66675 6.97279 6.71065 6.8668 6.78879 6.78866C6.86693 6.71052 6.97291 6.66663 7.08341 6.66663C7.19392 6.66663 7.2999 6.71052 7.37804 6.78866C7.45618 6.8668 7.50008 6.97279 7.50008 7.08329C7.50008 7.1938 7.45618 7.29978 7.37804 7.37792C7.2999 7.45606 7.19392 7.49996 7.08341 7.49996Z" fill="#9B9B9B" stroke="#9B9B9B" stroke-width="1.5" stroke-linecap="round" stroke-linejoin="round"/>
<path d="M11.6667 7.49996H13.3334M18.3334 9.99996C18.3334 14.6025 14.6026 18.3333 10.0001 18.3333C5.39758 18.3333 1.66675 14.6025 1.66675 9.99996C1.66675 5.39746 5.39758 1.66663 10.0001 1.66663C14.6026 1.66663 18.3334 5.39746 18.3334 9.99996Z" stroke="#9B9B9B" stroke-width="1.5" stroke-linecap="round" stroke-linejoin="round"/>
<path d="M6.25 12.0833C6.25 12.0833 7.5 13.7499 10 13.7499C12.5 13.7499 13.75 12.0833 13.75 12.0833" stroke="#9B9B9B" stroke-width="1.5" stroke-linecap="round" stroke-linejoin="round"/>
</svg>
