<svg width="25" height="25" viewBox="0 0 25 25" fill="none" xmlns="http://www.w3.org/2000/svg">
<g id="solar:link-bold-duotone" clip-path="url(#clip0_989_98)">
<g id="Group">
<path id="Vector" d="M8.61663 17.9542C7.12288 19.4542 4.93746 19.4855 3.72705 18.2709C2.51455 17.0542 2.54788 14.8542 4.04267 13.3542L6.56767 10.8198C6.71396 10.673 6.79592 10.4741 6.79553 10.2668C6.79514 10.0595 6.71243 9.86092 6.56559 9.71463C6.41875 9.56835 6.21982 9.48639 6.01255 9.48678C5.80529 9.48717 5.60667 9.56988 5.46038 9.71672L2.93538 12.2511C0.9458 14.2501 0.695798 17.4407 2.61976 19.374C4.54684 21.3084 7.73122 21.0563 9.72392 19.0573L14.7729 13.9876C16.7645 11.9886 17.0145 8.79797 15.0885 6.86568C15.0171 6.78879 14.931 6.72707 14.8352 6.68419C14.7395 6.64132 14.6361 6.61817 14.5312 6.61612C14.4263 6.61407 14.3221 6.63317 14.2247 6.67228C14.1274 6.71139 14.0389 6.76971 13.9646 6.84375C13.8903 6.9178 13.8316 7.00605 13.7921 7.10325C13.7526 7.20045 13.7332 7.30461 13.7348 7.40951C13.7365 7.51441 13.7592 7.6179 13.8017 7.71381C13.8442 7.80972 13.9056 7.89609 13.9823 7.96776C15.1937 9.18443 15.1614 11.3844 13.6666 12.8844L8.61663 17.9542Z" fill="white"/>
<path id="Vector_2" opacity="0.5" d="M9.9114 12.1354C10.0578 12.2823 10.2566 12.3649 10.4639 12.3652C10.6713 12.3655 10.8703 12.2834 11.0171 12.137C11.164 11.9906 11.2466 11.7918 11.2469 11.5845C11.2472 11.3771 11.1651 11.1781 11.0187 11.0313C9.80619 9.81461 9.83953 7.61566 11.3343 6.11461L16.3854 1.04586C17.8791 -0.454136 20.0645 -0.485387 21.2749 0.729197C22.4864 1.94586 22.4541 4.14586 20.9593 5.64586L18.4343 8.18024C18.3598 8.25241 18.3004 8.3387 18.2596 8.43408C18.2188 8.52945 18.1974 8.63199 18.1967 8.73572C18.1959 8.83945 18.2158 8.9423 18.2552 9.03825C18.2947 9.1342 18.3528 9.22134 18.4262 9.29459C18.4997 9.36784 18.587 9.42572 18.6831 9.46487C18.7791 9.50402 18.882 9.52364 18.9858 9.52259C19.0895 9.52155 19.192 9.49986 19.2872 9.45878C19.3825 9.41771 19.4686 9.35808 19.5406 9.28336L22.0656 6.74899C24.0562 4.75003 24.3062 1.55941 22.3802 -0.374969C20.4531 -2.31039 17.2687 -2.05726 15.277 -0.0583038L10.227 5.01149C8.23744 7.00941 7.98744 10.2011 9.9114 12.1334V12.1354Z" fill="white"/>
</g>
</g>
<defs>
<clipPath id="clip0_989_98">
<rect width="25" height="25" fill="white" transform="matrix(-1 0 0 -1 25 25)"/>
</clipPath>
</defs>
</svg>
