<svg width="45" height="45" viewBox="0 0 45 45" fill="none" xmlns="http://www.w3.org/2000/svg">
<path d="M11.8125 9C11.8125 9.74592 11.5162 10.4613 10.9887 10.9887C10.4613 11.5162 9.74592 11.8125 9 11.8125C8.25408 11.8125 7.53871 11.5162 7.01126 10.9887C6.48382 10.4613 6.1875 9.74592 6.1875 9C6.1875 8.25408 6.48382 7.53871 7.01126 7.01126C7.53871 6.48382 8.25408 6.1875 9 6.1875C9.74592 6.1875 10.4613 6.48382 10.9887 7.01126C11.5162 7.53871 11.8125 8.25408 11.8125 9ZM38.8125 36C38.8125 36.7459 38.5162 37.4613 37.9887 37.9887C37.4613 38.5162 36.7459 38.8125 36 38.8125C35.2541 38.8125 34.5387 38.5162 34.0113 37.9887C33.4838 37.4613 33.1875 36.7459 33.1875 36C33.1875 35.2541 33.4838 34.5387 34.0113 34.0113C34.5387 33.4838 35.2541 33.1875 36 33.1875C36.7459 33.1875 37.4613 33.4838 37.9887 34.0113C38.5162 34.5387 38.8125 35.2541 38.8125 36ZM36 25.3125C36.7459 25.3125 37.4613 25.0162 37.9887 24.4887C38.5162 23.9613 38.8125 23.2459 38.8125 22.5C38.8125 21.7541 38.5162 21.0387 37.9887 20.5113C37.4613 19.9838 36.7459 19.6875 36 19.6875C35.2541 19.6875 34.5387 19.9838 34.0113 20.5113C33.4838 21.0387 33.1875 21.7541 33.1875 22.5C33.1875 23.2459 33.4838 23.9613 34.0113 24.4887C34.5387 25.0162 35.2541 25.3125 36 25.3125ZM38.8125 9C38.8125 9.74592 38.5162 10.4613 37.9887 10.9887C37.4613 11.5162 36.7459 11.8125 36 11.8125C35.2541 11.8125 34.5387 11.5162 34.0113 10.9887C33.4838 10.4613 33.1875 9.74592 33.1875 9C33.1875 8.25408 33.4838 7.53871 34.0113 7.01126C34.5387 6.48382 35.2541 6.1875 36 6.1875C36.7459 6.1875 37.4613 6.48382 37.9887 7.01126C38.5162 7.53871 38.8125 8.25408 38.8125 9ZM22.5 38.8125C23.2459 38.8125 23.9613 38.5162 24.4887 37.9887C25.0162 37.4613 25.3125 36.7459 25.3125 36C25.3125 35.2541 25.0162 34.5387 24.4887 34.0113C23.9613 33.4838 23.2459 33.1875 22.5 33.1875C21.7541 33.1875 21.0387 33.4838 20.5113 34.0113C19.9838 34.5387 19.6875 35.2541 19.6875 36C19.6875 36.7459 19.9838 37.4613 20.5113 37.9887C21.0387 38.5162 21.7541 38.8125 22.5 38.8125ZM25.3125 22.5C25.3125 23.2459 25.0162 23.9613 24.4887 24.4887C23.9613 25.0162 23.2459 25.3125 22.5 25.3125C21.7541 25.3125 21.0387 25.0162 20.5113 24.4887C19.9838 23.9613 19.6875 23.2459 19.6875 22.5C19.6875 21.7541 19.9838 21.0387 20.5113 20.5113C21.0387 19.9838 21.7541 19.6875 22.5 19.6875C23.2459 19.6875 23.9613 19.9838 24.4887 20.5113C25.0162 21.0387 25.3125 21.7541 25.3125 22.5ZM22.5 11.8125C23.2459 11.8125 23.9613 11.5162 24.4887 10.9887C25.0162 10.4613 25.3125 9.74592 25.3125 9C25.3125 8.25408 25.0162 7.53871 24.4887 7.01126C23.9613 6.48382 23.2459 6.1875 22.5 6.1875C21.7541 6.1875 21.0387 6.48382 20.5113 7.01126C19.9838 7.53871 19.6875 8.25408 19.6875 9C19.6875 9.74592 19.9838 10.4613 20.5113 10.9887C21.0387 11.5162 21.7541 11.8125 22.5 11.8125ZM11.8125 36C11.8125 36.7459 11.5162 37.4613 10.9887 37.9887C10.4613 38.5162 9.74592 38.8125 9 38.8125C8.25408 38.8125 7.53871 38.5162 7.01126 37.9887C6.48382 37.4613 6.1875 36.7459 6.1875 36C6.1875 35.2541 6.48382 34.5387 7.01126 34.0113C7.53871 33.4838 8.25408 33.1875 9 33.1875C9.74592 33.1875 10.4613 33.4838 10.9887 34.0113C11.5162 34.5387 11.8125 35.2541 11.8125 36ZM9 25.3125C9.74592 25.3125 10.4613 25.0162 10.9887 24.4887C11.5162 23.9613 11.8125 23.2459 11.8125 22.5C11.8125 21.7541 11.5162 21.0387 10.9887 20.5113C10.4613 19.9838 9.74592 19.6875 9 19.6875C8.25408 19.6875 7.53871 19.9838 7.01126 20.5113C6.48382 21.0387 6.1875 21.7541 6.1875 22.5C6.1875 23.2459 6.48382 23.9613 7.01126 24.4887C7.53871 25.0162 8.25408 25.3125 9 25.3125Z" fill="#CBCBCB" fill-opacity="0.8"/>
</svg>
