<svg width="37" height="29" viewBox="0 0 37 29" fill="none" xmlns="http://www.w3.org/2000/svg">
<path d="M17.2849 0.951544C17.574 0.662425 17.9661 0.5 18.375 0.5H34.7083C35.1172 0.5 35.5093 0.662426 35.7985 0.951543C36.0876 1.24066 36.25 1.63279 36.25 2.04167C36.25 2.45054 36.0876 2.84267 35.7985 3.13179C35.5093 3.42091 35.1172 3.58333 34.7083 3.58333H18.375C17.9661 3.58333 17.574 3.42091 17.2849 3.13179C16.9958 2.84267 16.8333 2.45054 16.8333 2.04167C16.8333 1.63279 16.9958 1.24066 17.2849 0.951544ZM8.66667 14.2917C8.66667 13.8828 8.82909 13.4907 9.11821 13.2015C9.40733 12.9124 9.79946 12.75 10.2083 12.75H26.5417C26.9505 12.75 27.3427 12.9124 27.6318 13.2015C27.9209 13.4907 28.0833 13.8828 28.0833 14.2917C28.0833 14.7005 27.9209 15.0927 27.6318 15.3818C27.3427 15.6709 26.9505 15.8333 26.5417 15.8333H10.2083C9.79946 15.8333 9.40733 15.6709 9.11821 15.3818C8.82909 15.0927 8.66667 14.7005 8.66667 14.2917ZM0.5 26.5417C0.5 26.1328 0.662425 25.7407 0.951544 25.4515C1.24066 25.1624 1.63279 25 2.04167 25H18.375C18.7839 25 19.176 25.1624 19.4651 25.4515C19.7542 25.7407 19.9167 26.1328 19.9167 26.5417C19.9167 26.9505 19.7542 27.3427 19.4651 27.6318C19.176 27.9209 18.7839 28.0833 18.375 28.0833H2.04167C1.63279 28.0833 1.24066 27.9209 0.951544 27.6318C0.662425 27.3427 0.5 26.9505 0.5 26.5417Z" fill="white" stroke="#9F42CB"/>
</svg>
