<svg width="118" height="20" viewBox="0 0 118 20" fill="none" xmlns="http://www.w3.org/2000/svg">
<path d="M21.2109 8.17383C21.1914 8.29102 21.1572 8.42285 21.1084 8.56934C21.0693 8.71582 21.0107 8.85254 20.9326 8.97949C20.8643 9.09668 20.7764 9.19922 20.6689 9.28711C20.5615 9.36523 20.4346 9.4043 20.2881 9.4043C20.1807 9.4043 20.0732 9.39453 19.9658 9.375C19.8584 9.3457 19.7461 9.33105 19.6289 9.33105C19.5801 9.33105 19.5264 9.35059 19.4678 9.38965C19.4189 9.41895 19.3701 9.43359 19.3213 9.43359C19.2725 9.43359 19.2285 9.42871 19.1895 9.41895C19.1602 9.39941 19.1211 9.38965 19.0723 9.38965C19.043 9.38965 18.9893 9.39941 18.9111 9.41895C18.833 9.43848 18.75 9.45801 18.6621 9.47754C18.5742 9.49707 18.4912 9.52148 18.4131 9.55078C18.335 9.57031 18.2812 9.58496 18.252 9.59473C17.9883 9.68262 17.7246 9.76074 17.4609 9.8291C17.1973 9.89746 16.9238 9.94141 16.6406 9.96094C16.582 9.94141 16.4941 9.92188 16.377 9.90234C16.2598 9.87305 16.1719 9.8584 16.1133 9.8584C15.9961 9.8584 15.918 9.90723 15.8789 10.0049C15.8496 10.1025 15.7861 10.1758 15.6885 10.2246C15.5713 10.293 15.4248 10.332 15.249 10.3418C15.0732 10.3516 14.8975 10.3662 14.7217 10.3857C14.5459 10.4053 14.3799 10.4443 14.2236 10.5029C14.0771 10.5518 13.9697 10.6494 13.9014 10.7959C13.8525 10.7861 13.7988 10.7812 13.7402 10.7812C13.6914 10.7715 13.6377 10.7666 13.5791 10.7666C13.2666 10.7666 12.9736 10.8301 12.7002 10.957C12.4268 11.0742 12.1484 11.1816 11.8652 11.2793C11.9141 11.3672 11.9482 11.4746 11.9678 11.6016C11.9873 11.7285 12.0068 11.8555 12.0264 11.9824C12.0459 12.0996 12.0703 12.2168 12.0996 12.334C12.1387 12.4414 12.2021 12.5244 12.29 12.583C12.29 12.6416 12.2754 12.6904 12.2461 12.7295C12.2266 12.7686 12.2021 12.8027 12.1729 12.832L12.0703 12.9346C12.041 12.9639 12.0215 13.0078 12.0117 13.0664C11.9824 13.1836 11.9678 13.3057 11.9678 13.4326C11.9678 13.5498 11.8994 13.6377 11.7627 13.6963C11.7725 13.7256 11.7773 13.7793 11.7773 13.8574C11.7773 13.9551 11.7627 14.0479 11.7334 14.1357C11.7041 14.2236 11.6943 14.3213 11.7041 14.4287C11.5381 14.6143 11.3965 14.8047 11.2793 15C11.1719 15.1953 11.0889 15.4053 11.0303 15.6299C10.6689 15.9912 10.2979 16.3525 9.91699 16.7139C9.5459 17.085 9.16016 17.4414 8.75977 17.7832C8.36914 18.125 7.96387 18.4473 7.54395 18.75C7.12402 19.0625 6.68945 19.3359 6.24023 19.5703H6.1377C5.91309 19.5703 5.7373 19.6094 5.61035 19.6875C5.4834 19.7656 5.32227 19.834 5.12695 19.8926C4.98047 19.8535 4.80469 19.834 4.59961 19.834C4.48242 19.834 4.36035 19.8389 4.2334 19.8486C4.11621 19.8584 3.99414 19.8633 3.86719 19.8633C3.70117 19.8633 3.5498 19.8438 3.41309 19.8047C3.28613 19.7656 3.15918 19.7217 3.03223 19.6729C2.91504 19.624 2.79297 19.5752 2.66602 19.5264C2.53906 19.4775 2.40234 19.4434 2.25586 19.4238C1.65039 18.8184 1.17188 18.1104 0.820312 17.2998C0.46875 16.499 0.292969 15.6738 0.292969 14.8242C0.292969 14.4336 0.34668 14.0527 0.454102 13.6816C0.561523 13.3008 0.615234 12.9199 0.615234 12.5391C0.791016 12.1875 0.942383 11.8262 1.06934 11.4551C1.20605 11.084 1.34277 10.7129 1.47949 10.3418C1.61621 9.9707 1.7627 9.60938 1.91895 9.25781C2.08496 8.89648 2.28027 8.55469 2.50488 8.23242C2.55371 7.97852 2.63184 7.75879 2.73926 7.57324C2.84668 7.3877 2.96387 7.18262 3.09082 6.95801C3.09082 6.74316 3.13477 6.54785 3.22266 6.37207C3.32031 6.18652 3.37891 5.98145 3.39844 5.75684C3.55469 5.61035 3.68164 5.44434 3.7793 5.25879C3.87695 5.07324 3.96973 4.88281 4.05762 4.6875C4.14551 4.49219 4.24316 4.30664 4.35059 4.13086C4.46777 3.94531 4.62402 3.78906 4.81934 3.66211C4.83887 3.59375 4.84863 3.52051 4.84863 3.44238C4.8584 3.35449 4.88281 3.28613 4.92188 3.2373L5.22949 2.90039C5.32715 2.77344 5.41504 2.64648 5.49316 2.51953C5.58105 2.38281 5.67383 2.26074 5.77148 2.15332C5.83008 2.09473 5.89355 2.0459 5.96191 2.00684C6.03027 1.96777 6.08887 1.92383 6.1377 1.875C6.18652 1.82617 6.20117 1.7627 6.18164 1.68457C6.17188 1.60645 6.19141 1.54297 6.24023 1.49414C6.25977 1.47461 6.28906 1.45508 6.32812 1.43555C6.36719 1.41602 6.40137 1.39648 6.43066 1.37695C6.55762 1.28906 6.66504 1.20117 6.75293 1.11328C6.84082 1.02539 6.96289 0.961914 7.11914 0.922852C7.25586 0.81543 7.37793 0.708008 7.48535 0.600586C7.60254 0.493164 7.71973 0.395508 7.83691 0.307617C7.9541 0.219727 8.08105 0.151367 8.21777 0.102539C8.35449 0.0439453 8.52539 0.0146484 8.73047 0.0146484C8.76953 0.0146484 8.80859 0.0195312 8.84766 0.0292969C8.88672 0.0292969 8.92578 0.0292969 8.96484 0.0292969C9.36523 0.400391 9.61426 0.854492 9.71191 1.3916C9.60449 1.52832 9.5166 1.6748 9.44824 1.83105C9.38965 1.9873 9.32129 2.14355 9.24316 2.2998C9.07715 2.3584 8.9209 2.44629 8.77441 2.56348C8.62793 2.6709 8.48145 2.7832 8.33496 2.90039C8.19824 3.01758 8.05176 3.12012 7.89551 3.20801C7.74902 3.2959 7.58301 3.33984 7.39746 3.33984C7.31934 3.4082 7.19238 3.52051 7.0166 3.67676C6.85059 3.82324 6.6748 3.97949 6.48926 4.14551C6.31348 4.31152 6.14746 4.46777 5.99121 4.61426C5.84473 4.76074 5.75195 4.86328 5.71289 4.92188C5.68359 4.9707 5.65918 5.01465 5.63965 5.05371C5.62012 5.09277 5.60059 5.13672 5.58105 5.18555L5.2002 5.83008C4.98535 6.20117 4.76562 6.56738 4.54102 6.92871C4.31641 7.28027 4.12109 7.65137 3.95508 8.04199C3.87695 8.21777 3.81348 8.39355 3.76465 8.56934C3.71582 8.74512 3.66699 8.93066 3.61816 9.12598C3.59863 9.18457 3.57422 9.24316 3.54492 9.30176C3.51562 9.36035 3.49121 9.41406 3.47168 9.46289C3.36426 9.66797 3.27637 9.8584 3.20801 10.0342C3.13965 10.21 3.10059 10.415 3.09082 10.6494C2.84668 11.1963 2.61719 11.748 2.40234 12.3047C2.19727 12.8516 2.04102 13.418 1.93359 14.0039C1.99219 14.1992 2.0166 14.3994 2.00684 14.6045C2.00684 14.7998 2.00684 14.9951 2.00684 15.1904C2.00684 15.4346 2.02148 15.6348 2.05078 15.791C2.08984 15.957 2.13867 16.1035 2.19727 16.2305C2.26562 16.3672 2.33887 16.5039 2.41699 16.6406C2.49512 16.7871 2.57812 16.958 2.66602 17.1533C2.8125 17.2705 2.94434 17.3926 3.06152 17.5195C3.17871 17.6562 3.29102 17.8027 3.39844 17.959C3.76953 18.1445 4.14551 18.2373 4.52637 18.2373C4.7998 18.2373 5.07812 18.1934 5.36133 18.1055C5.64453 18.0176 5.91797 17.9053 6.18164 17.7686C6.45508 17.6416 6.71875 17.5 6.97266 17.3438C7.22656 17.1875 7.4707 17.0361 7.70508 16.8896C8.11523 16.6455 8.47168 16.3818 8.77441 16.0986C9.07715 15.8154 9.35059 15.5176 9.59473 15.2051C9.84863 14.8926 10.083 14.5605 10.2979 14.209C10.5127 13.8477 10.7373 13.4668 10.9717 13.0664C10.9814 13.0176 11.001 12.959 11.0303 12.8906L11.1182 12.6709C11.1475 12.5928 11.1719 12.5244 11.1914 12.4658C11.2207 12.3975 11.2354 12.3535 11.2354 12.334C11.2354 12.2559 11.2158 12.2021 11.1768 12.1729C11.1475 12.1338 11.1328 12.0947 11.1328 12.0557C11.1328 11.9775 11.1523 11.9238 11.1914 11.8945C11.2305 11.8652 11.2744 11.8359 11.3232 11.8066C11.3818 11.7773 11.4307 11.7432 11.4697 11.7041C11.5186 11.665 11.543 11.5918 11.543 11.4844C11.5234 11.4746 11.4893 11.4697 11.4404 11.4697C11.3916 11.4697 11.3428 11.4746 11.2939 11.4844C11.2451 11.4941 11.1963 11.499 11.1475 11.499C11.0303 11.499 10.9326 11.46 10.8545 11.3818C10.8057 11.4014 10.7568 11.4355 10.708 11.4844C10.6592 11.5234 10.6104 11.5674 10.5615 11.6162C10.5225 11.665 10.4834 11.709 10.4443 11.748C10.4053 11.7871 10.3711 11.8066 10.3418 11.8066C10.293 11.8066 10.2539 11.7969 10.2246 11.7773C10.2051 11.7578 10.1758 11.748 10.1367 11.748C9.9707 11.748 9.82422 11.7871 9.69727 11.8652C9.57031 11.9434 9.43359 12.0068 9.28711 12.0557C9.25781 12.0557 9.22852 12.0557 9.19922 12.0557C9.16992 12.0459 9.14062 12.041 9.11133 12.041C9.00391 12.041 8.89648 12.0605 8.78906 12.0996C8.69141 12.1289 8.59375 12.1631 8.49609 12.2021C8.4082 12.2412 8.31543 12.2754 8.21777 12.3047C8.12012 12.334 8.02246 12.3438 7.9248 12.334C7.70996 12.4121 7.50977 12.4951 7.32422 12.583C7.14844 12.6709 6.94336 12.7051 6.70898 12.6855C6.64062 12.7148 6.56738 12.749 6.48926 12.7881C6.4209 12.8174 6.35254 12.8564 6.28418 12.9053C6.22559 12.9248 6.18164 12.9346 6.15234 12.9346C6.10352 12.9346 6.06445 12.9102 6.03516 12.8613C5.95703 12.9492 5.85449 13.0127 5.72754 13.0518C5.60059 13.0811 5.46875 13.1104 5.33203 13.1396C5.19531 13.1592 5.06348 13.1885 4.93652 13.2275C4.81934 13.2568 4.72656 13.3203 4.6582 13.418C4.55078 13.3301 4.42383 13.2861 4.27734 13.2861C4.13086 13.2861 3.98926 13.3154 3.85254 13.374C3.71582 13.4229 3.56934 13.4473 3.41309 13.4473C3.35449 13.4473 3.31543 13.4375 3.2959 13.418C3.25684 13.3105 3.21289 13.2031 3.16406 13.0957C3.11523 12.9883 3.03711 12.9102 2.92969 12.8613C2.91016 12.7539 2.89062 12.6514 2.87109 12.5537C2.86133 12.4463 2.85645 12.3438 2.85645 12.2461C2.85645 11.9824 2.93457 11.7432 3.09082 11.5283C3.22754 11.4795 3.36426 11.4404 3.50098 11.4111C3.64746 11.3721 3.78906 11.3281 3.92578 11.2793C4.0332 11.2988 4.14062 11.3135 4.24805 11.3232C4.35547 11.333 4.46289 11.3379 4.57031 11.3379C4.9707 11.3379 5.36133 11.2891 5.74219 11.1914C6.12305 11.084 6.49902 10.9717 6.87012 10.8545C7.22168 10.7471 7.57813 10.6494 7.93945 10.5615C8.30078 10.4736 8.66211 10.376 9.02344 10.2686C9.36523 10.1807 9.70215 10.083 10.0342 9.97559C10.3662 9.8584 10.7129 9.78516 11.0742 9.75586C11.3086 9.58984 11.5918 9.47754 11.9238 9.41895C12.2656 9.36035 12.5781 9.29688 12.8613 9.22852C13.3105 9.12109 13.7549 9.01367 14.1943 8.90625C14.6338 8.78906 15.083 8.68652 15.542 8.59863C16.0498 8.49121 16.543 8.35938 17.0215 8.20312C17.5098 8.04688 17.998 7.88086 18.4863 7.70508H18.6328C18.7988 7.70508 18.9697 7.68555 19.1455 7.64648C19.3213 7.60742 19.4971 7.58789 19.6729 7.58789C19.7217 7.58789 19.7607 7.59277 19.79 7.60254C19.8291 7.60254 19.8682 7.60254 19.9072 7.60254C19.9365 7.60254 20.0098 7.58301 20.127 7.54395C20.2441 7.49512 20.3271 7.46094 20.376 7.44141C20.5029 7.57812 20.6445 7.7002 20.8008 7.80762C20.957 7.91504 21.0938 8.03711 21.2109 8.17383ZM96.2549 14.165C96.2549 14.2432 96.2256 14.2969 96.167 14.3262C96.1182 14.3555 96.1084 14.4238 96.1377 14.5312C96.0596 14.541 95.9912 14.5801 95.9326 14.6484C95.874 14.7168 95.8057 14.751 95.7275 14.751C95.6787 14.751 95.6396 14.7266 95.6104 14.6777C95.5908 14.7461 95.5518 14.7949 95.4932 14.8242C95.4443 14.8535 95.3906 14.8779 95.332 14.8975C95.2734 14.917 95.2148 14.9414 95.1562 14.9707C95.0977 15 95.0586 15.0439 95.0391 15.1025H94.9658C94.8486 15.1025 94.7559 15.1514 94.6875 15.249C94.6289 15.3467 94.5557 15.3955 94.4678 15.3955C94.4385 15.3955 94.4189 15.3906 94.4092 15.3809C94.3604 15.3906 94.3408 15.4199 94.3506 15.4688C94.3604 15.5273 94.3457 15.5664 94.3066 15.5859H94.2334C93.9795 15.5859 93.7207 15.6396 93.457 15.7471C93.1934 15.8545 92.9248 15.9766 92.6514 16.1133C92.3877 16.25 92.1143 16.377 91.8311 16.4941C91.5576 16.6211 91.2793 16.7041 90.9961 16.7432C90.9375 16.8018 90.8643 16.8457 90.7764 16.875C90.6982 16.9141 90.6104 16.9434 90.5127 16.9629C90.415 16.9824 90.3174 17.002 90.2197 17.0215C90.1318 17.0508 90.0537 17.0947 89.9854 17.1533C89.7412 17.1729 89.4971 17.2168 89.2529 17.2852C89.0088 17.3535 88.7646 17.417 88.5205 17.4756C88.2861 17.5439 88.042 17.5977 87.7881 17.6367C87.5439 17.6855 87.2949 17.7002 87.041 17.6807C86.9629 17.7393 86.875 17.7832 86.7773 17.8125C86.6895 17.8516 86.6064 17.9004 86.5283 17.959C86.1279 17.9004 85.7275 17.8564 85.3271 17.8271C84.9365 17.7979 84.5508 17.7295 84.1699 17.6221C84.1699 17.5928 84.1602 17.5732 84.1406 17.5635C84.1211 17.5537 84.0967 17.5439 84.0674 17.5342C84.0479 17.5342 84.0283 17.5244 84.0088 17.5049C83.9893 17.4951 83.9893 17.4707 84.0088 17.4316C83.9209 17.4609 83.8428 17.4756 83.7744 17.4756C83.6768 17.4756 83.5791 17.4512 83.4814 17.4023C83.3936 17.3535 83.2959 17.2998 83.1885 17.2412C83.0908 17.1826 82.9883 17.124 82.8809 17.0654C82.7734 17.0166 82.6562 16.9922 82.5293 16.9922C82.4512 16.9141 82.3779 16.8359 82.3096 16.7578C82.251 16.6797 82.207 16.582 82.1777 16.4648C82.1387 16.4551 82.0947 16.4551 82.0459 16.4648C82.0068 16.4746 81.9727 16.4795 81.9434 16.4795C81.8848 16.4795 81.8555 16.46 81.8555 16.4209C81.6504 16.2744 81.5039 16.1182 81.416 15.9521C81.3281 15.7861 81.2305 15.5957 81.123 15.3809C81.0938 15.3125 81.0547 15.2539 81.0059 15.2051C80.9668 15.166 80.9375 15.1172 80.918 15.0586C80.8789 14.9609 80.8545 14.8584 80.8447 14.751C80.835 14.6436 80.8252 14.541 80.8154 14.4434C80.8154 14.3359 80.8008 14.2334 80.7715 14.1357C80.752 14.0283 80.708 13.9307 80.6396 13.8428C80.6592 13.4717 80.6982 13.1006 80.7568 12.7295C80.8252 12.3584 80.9082 11.9873 81.0059 11.6162C81.0449 11.4502 81.0889 11.2891 81.1377 11.1328C81.1865 10.9766 81.2305 10.8154 81.2695 10.6494C81.2793 10.5908 81.2939 10.5518 81.3135 10.5322C81.3428 10.5029 81.3672 10.4834 81.3867 10.4736L81.4453 10.4297C81.4648 10.4102 81.4795 10.3809 81.4893 10.3418L81.6064 9.84375C81.6846 9.52148 81.7871 9.20898 81.9141 8.90625C82.041 8.60352 82.2119 8.3252 82.4268 8.07129C82.4463 7.82715 82.5 7.59766 82.5879 7.38281C82.6855 7.1582 82.793 6.94336 82.9102 6.73828C83.0273 6.52344 83.1445 6.31348 83.2617 6.1084C83.3789 5.90332 83.4717 5.68359 83.54 5.44922L83.5254 5.41992C83.5254 5.38086 83.5449 5.36133 83.584 5.36133C83.6328 5.35156 83.667 5.34668 83.6865 5.34668C83.6963 5.19043 83.7305 5.05859 83.7891 4.95117C83.8574 4.83398 83.9258 4.72656 83.9941 4.62891C84.0723 4.53125 84.1406 4.42871 84.1992 4.32129C84.2676 4.2041 84.3066 4.06738 84.3164 3.91113C84.502 3.80371 84.6582 3.67188 84.7852 3.51562C84.9219 3.34961 85.0488 3.18359 85.166 3.01758C85.293 2.8418 85.4248 2.67578 85.5615 2.51953C85.6982 2.35352 85.8643 2.22168 86.0596 2.12402C86.1084 2.06543 86.123 1.98242 86.1035 1.875C86.4062 1.65039 86.7188 1.4502 87.041 1.27441C87.3633 1.09863 87.666 0.893555 87.9492 0.65918H88.4766C88.6035 0.561523 88.7451 0.512695 88.9014 0.512695C89.0186 0.512695 89.1309 0.537109 89.2383 0.585938C89.3555 0.634766 89.4629 0.693359 89.5605 0.761719C89.668 0.820312 89.7754 0.883789 89.8828 0.952148C89.9902 1.01074 90.0977 1.05469 90.2051 1.08398C90.3125 1.23047 90.3857 1.40137 90.4248 1.59668C90.4736 1.78223 90.5225 1.95801 90.5713 2.12402C90.4834 2.3877 90.4297 2.66113 90.4102 2.94434C90.3906 3.21777 90.3564 3.49121 90.3076 3.76465C90.2393 3.84277 90.1807 3.93066 90.1318 4.02832C90.083 4.11621 90.0293 4.20898 89.9707 4.30664C89.9219 4.39453 89.8682 4.48242 89.8096 4.57031C89.751 4.64844 89.6729 4.71191 89.5752 4.76074C89.4971 5.04395 89.375 5.26855 89.209 5.43457C89.043 5.60059 88.8818 5.7959 88.7256 6.02051C88.5791 6.11816 88.4229 6.16699 88.2568 6.16699C88.1201 6.16699 87.998 6.1377 87.8906 6.0791C87.7832 6.01074 87.6855 5.92773 87.5977 5.83008C87.5098 5.72266 87.4365 5.61035 87.3779 5.49316C87.3291 5.36621 87.29 5.24414 87.2607 5.12695C87.3291 4.92188 87.4365 4.74609 87.583 4.59961C87.7393 4.45312 87.8955 4.30664 88.0518 4.16016C88.208 4.01367 88.3447 3.85742 88.4619 3.69141C88.5791 3.52539 88.6377 3.3252 88.6377 3.09082C88.6377 3.07129 88.6328 3.05176 88.623 3.03223C88.623 3.0127 88.623 2.99316 88.623 2.97363C88.623 2.93457 88.6377 2.90039 88.667 2.87109C88.6963 2.8418 88.7256 2.81738 88.7549 2.79785L88.8428 2.72461C88.8721 2.69531 88.8867 2.66113 88.8867 2.62207C88.8867 2.58301 88.8672 2.54395 88.8281 2.50488C88.457 2.53418 88.1738 2.59766 87.9785 2.69531C87.793 2.79297 87.6465 2.90039 87.5391 3.01758C87.4316 3.13477 87.334 3.25195 87.2461 3.36914C87.168 3.47656 87.0508 3.55469 86.8945 3.60352C86.8652 3.68164 86.8213 3.75 86.7627 3.80859C86.7139 3.85742 86.6602 3.91113 86.6016 3.96973C86.543 4.01855 86.4893 4.07715 86.4404 4.14551C86.4014 4.21387 86.377 4.29688 86.3672 4.39453H86.1035C86.0645 4.48242 86.0059 4.57031 85.9277 4.6582C85.8594 4.73633 85.7861 4.81445 85.708 4.89258C85.6396 4.9707 85.5762 5.05859 85.5176 5.15625C85.4688 5.24414 85.4541 5.3418 85.4736 5.44922C85.3662 5.48828 85.2832 5.55176 85.2246 5.63965C85.1758 5.72754 85.1025 5.80078 85.0049 5.85938V5.94727C85.0049 6.02539 84.9902 6.09863 84.9609 6.16699C84.9316 6.23535 84.9268 6.30859 84.9463 6.38672C84.8291 6.49414 84.7412 6.63086 84.6826 6.79688C84.6338 6.95312 84.5801 7.09961 84.5215 7.23633C84.3848 7.30469 84.292 7.39746 84.2432 7.51465C84.1943 7.63184 84.1699 7.76855 84.1699 7.9248C84.0234 8.07129 83.8916 8.24219 83.7744 8.4375C83.6572 8.63281 83.5498 8.83301 83.4521 9.03809C83.3643 9.24316 83.2812 9.45312 83.2031 9.66797C83.125 9.88281 83.042 10.083 82.9541 10.2686V10.6934C82.8174 10.8496 82.7197 11.0352 82.6611 11.25C82.6123 11.4551 82.5342 11.6406 82.4268 11.8066C82.4072 11.9141 82.3975 12.0215 82.3975 12.1289C82.4072 12.2363 82.4121 12.3438 82.4121 12.4512C82.4121 12.5684 82.4023 12.6904 82.3828 12.8174C82.3633 12.9443 82.3291 13.0615 82.2803 13.1689C82.3193 13.3154 82.3486 13.4912 82.3682 13.6963C82.3877 13.8916 82.4219 14.0918 82.4707 14.2969C82.5195 14.4922 82.5879 14.6729 82.6758 14.8389C82.7637 14.9951 82.8906 15.1025 83.0566 15.1611C83.0957 15.376 83.1885 15.5371 83.335 15.6445C83.4912 15.7617 83.667 15.8545 83.8623 15.9229C84.0576 15.9912 84.2578 16.0498 84.4629 16.0986C84.668 16.1572 84.8486 16.2305 85.0049 16.3184C85.0635 16.2891 85.1318 16.2744 85.21 16.2744C85.2881 16.2744 85.3564 16.2842 85.415 16.3037C85.4834 16.3232 85.5566 16.3428 85.6348 16.3623C85.7715 16.3428 85.9375 16.333 86.1328 16.333C86.3379 16.333 86.543 16.3232 86.748 16.3037C86.9531 16.2939 87.1436 16.2695 87.3193 16.2305C87.4951 16.1914 87.6367 16.1182 87.7441 16.0107C87.8125 16.0107 87.8564 16.0303 87.876 16.0693C87.9053 16.1084 87.9541 16.1279 88.0225 16.1279C88.0908 16.1279 88.1934 16.1084 88.3301 16.0693C88.4668 16.04 88.6084 16.001 88.7549 15.9521C88.9014 15.9131 89.0381 15.8691 89.165 15.8203C89.3018 15.7715 89.3994 15.7275 89.458 15.6885C89.4873 15.6982 89.5166 15.7031 89.5459 15.7031H89.6484C89.7852 15.7031 89.9121 15.6787 90.0293 15.6299C90.1465 15.5811 90.2734 15.5664 90.4102 15.5859C90.8594 15.3613 91.3135 15.166 91.7725 15C92.2412 14.8438 92.7148 14.7021 93.1934 14.5752C93.252 14.4873 93.3203 14.4238 93.3984 14.3848C93.4863 14.3457 93.5791 14.3164 93.6768 14.2969C93.7744 14.2676 93.8721 14.248 93.9697 14.2383C94.0674 14.2188 94.1602 14.1943 94.248 14.165C94.3066 14.1357 94.3555 14.1016 94.3945 14.0625C94.4434 14.0137 94.502 13.9746 94.5703 13.9453C94.6387 13.916 94.7119 13.8965 94.79 13.8867C94.8779 13.877 94.9609 13.8672 95.0391 13.8574C95.127 13.8379 95.2051 13.8135 95.2734 13.7842C95.3516 13.7549 95.415 13.7061 95.4639 13.6377C95.6006 13.6963 95.7373 13.7598 95.874 13.8281C96.0205 13.8965 96.1426 13.9941 96.2402 14.1211L96.2549 14.165Z" fill="#A65AC9"/>
<path d="M21.848 6.24V4.77H23.063V6.24H21.848ZM21.893 15V7.5H23.018V15H21.893ZM28.2241 15.12C27.4641 15.12 26.8041 14.95 26.2441 14.61C25.6841 14.26 25.2541 13.79 24.9541 13.2C24.6541 12.61 24.5041 11.96 24.5041 11.25C24.5041 10.53 24.6541 9.88 24.9541 9.3C25.2541 8.71 25.6841 8.245 26.2441 7.905C26.8041 7.555 27.4641 7.38 28.2241 7.38C28.9941 7.38 29.6541 7.555 30.2041 7.905C30.7641 8.245 31.1941 8.71 31.4941 9.3C31.7941 9.88 31.9441 10.53 31.9441 11.25C31.9441 11.96 31.7941 12.61 31.4941 13.2C31.1941 13.79 30.7641 14.26 30.2041 14.61C29.6541 14.95 28.9941 15.12 28.2241 15.12ZM28.2241 14.1C28.7841 14.1 29.2541 13.97 29.6341 13.71C30.0241 13.45 30.3191 13.105 30.5191 12.675C30.7191 12.235 30.8191 11.76 30.8191 11.25C30.8191 10.73 30.7191 10.255 30.5191 9.825C30.3191 9.395 30.0241 9.05 29.6341 8.79C29.2541 8.53 28.7841 8.4 28.2241 8.4C27.6741 8.4 27.2041 8.53 26.8141 8.79C26.4241 9.05 26.1291 9.395 25.9291 9.825C25.7291 10.255 25.6291 10.73 25.6291 11.25C25.6291 11.76 25.7291 12.235 25.9291 12.675C26.1291 13.105 26.4241 13.45 26.8141 13.71C27.2041 13.97 27.6741 14.1 28.2241 14.1ZM35.3295 15L32.3895 7.5H33.6195L35.9895 13.8L38.3445 7.5H39.5745L36.6495 15H35.3295ZM43.6468 15.12C42.9168 15.12 42.2768 14.95 41.7268 14.61C41.1868 14.26 40.7668 13.79 40.4668 13.2C40.1668 12.61 40.0168 11.96 40.0168 11.25C40.0168 10.53 40.1668 9.88 40.4668 9.3C40.7668 8.71 41.1868 8.245 41.7268 7.905C42.2768 7.555 42.9168 7.38 43.6468 7.38C44.2668 7.38 44.7968 7.5 45.2368 7.74C45.6868 7.98 46.0518 8.305 46.3318 8.715V7.5H47.4568V15H46.3318V13.8C46.0518 14.2 45.6868 14.52 45.2368 14.76C44.7968 15 44.2668 15.12 43.6468 15.12ZM43.7968 14.1C44.3568 14.1 44.8268 13.97 45.2068 13.71C45.5968 13.45 45.8918 13.105 46.0918 12.675C46.2918 12.235 46.3918 11.76 46.3918 11.25C46.3918 10.73 46.2918 10.255 46.0918 9.825C45.8918 9.395 45.5968 9.05 45.2068 8.79C44.8268 8.53 44.3568 8.4 43.7968 8.4C43.2468 8.4 42.7718 8.53 42.3718 8.79C41.9718 9.05 41.6668 9.395 41.4568 9.825C41.2468 10.255 41.1418 10.73 41.1418 11.25C41.1418 11.76 41.2468 12.235 41.4568 12.675C41.6668 13.105 41.9718 13.45 42.3718 13.71C42.7718 13.97 43.2468 14.1 43.7968 14.1ZM49.4027 15V7.5H50.5277V8.67C50.7977 8.31 51.1277 8.005 51.5177 7.755C51.9077 7.505 52.4077 7.38 53.0177 7.38C53.5377 7.38 54.0227 7.505 54.4727 7.755C54.9327 7.995 55.3027 8.36 55.5827 8.85C55.8727 9.33 56.0177 9.925 56.0177 10.635V15H54.8927V10.665C54.8927 9.985 54.6977 9.44 54.3077 9.03C53.9177 8.61 53.4127 8.4 52.7927 8.4C52.3727 8.4 51.9927 8.495 51.6527 8.685C51.3127 8.875 51.0377 9.145 50.8277 9.495C50.6277 9.835 50.5277 10.23 50.5277 10.68V15H49.4027ZM57.8988 15V7.5H59.0238V8.67C59.2938 8.31 59.6238 8.005 60.0138 7.755C60.4038 7.505 60.9038 7.38 61.5138 7.38C62.0338 7.38 62.5188 7.505 62.9688 7.755C63.4288 7.995 63.7988 8.36 64.0788 8.85C64.3688 9.33 64.5138 9.925 64.5138 10.635V15H63.3888V10.665C63.3888 9.985 63.1938 9.44 62.8038 9.03C62.4138 8.61 61.9088 8.4 61.2888 8.4C60.8688 8.4 60.4888 8.495 60.1488 8.685C59.8088 8.875 59.5338 9.145 59.3238 9.495C59.1238 9.835 59.0238 10.23 59.0238 10.68V15H57.8988ZM69.5599 15.12C68.8299 15.12 68.1899 14.95 67.6399 14.61C67.0999 14.26 66.6799 13.79 66.3799 13.2C66.0799 12.61 65.9299 11.96 65.9299 11.25C65.9299 10.53 66.0799 9.88 66.3799 9.3C66.6799 8.71 67.0999 8.245 67.6399 7.905C68.1899 7.555 68.8299 7.38 69.5599 7.38C70.1799 7.38 70.7099 7.5 71.1499 7.74C71.5999 7.98 71.9649 8.305 72.2449 8.715V7.5H73.3699V15H72.2449V13.8C71.9649 14.2 71.5999 14.52 71.1499 14.76C70.7099 15 70.1799 15.12 69.5599 15.12ZM69.7099 14.1C70.2699 14.1 70.7399 13.97 71.1199 13.71C71.5099 13.45 71.8049 13.105 72.0049 12.675C72.2049 12.235 72.3049 11.76 72.3049 11.25C72.3049 10.73 72.2049 10.255 72.0049 9.825C71.8049 9.395 71.5099 9.05 71.1199 8.79C70.7399 8.53 70.2699 8.4 69.7099 8.4C69.1599 8.4 68.6849 8.53 68.2849 8.79C67.8849 9.05 67.5799 9.395 67.3699 9.825C67.1599 10.255 67.0549 10.73 67.0549 11.25C67.0549 11.76 67.1599 12.235 67.3699 12.675C67.5799 13.105 67.8849 13.45 68.2849 13.71C68.6849 13.97 69.1599 14.1 69.7099 14.1ZM98.0825 15.12C97.3225 15.12 96.6625 14.95 96.1025 14.61C95.5425 14.26 95.1125 13.79 94.8125 13.2C94.5125 12.61 94.3625 11.96 94.3625 11.25C94.3625 10.53 94.5125 9.88 94.8125 9.3C95.1125 8.71 95.5425 8.245 96.1025 7.905C96.6625 7.555 97.3225 7.38 98.0825 7.38C98.8525 7.38 99.5125 7.555 100.063 7.905C100.623 8.245 101.053 8.71 101.353 9.3C101.653 9.88 101.803 10.53 101.803 11.25C101.803 11.96 101.653 12.61 101.353 13.2C101.053 13.79 100.623 14.26 100.063 14.61C99.5125 14.95 98.8525 15.12 98.0825 15.12ZM98.0825 14.1C98.6425 14.1 99.1125 13.97 99.4925 13.71C99.8825 13.45 100.178 13.105 100.378 12.675C100.578 12.235 100.678 11.76 100.678 11.25C100.678 10.73 100.578 10.255 100.378 9.825C100.178 9.395 99.8825 9.05 99.4925 8.79C99.1125 8.53 98.6425 8.4 98.0825 8.4C97.5325 8.4 97.0625 8.53 96.6725 8.79C96.2825 9.05 95.9875 9.395 95.7875 9.825C95.5875 10.255 95.4875 10.73 95.4875 11.25C95.4875 11.76 95.5875 12.235 95.7875 12.675C95.9875 13.105 96.2825 13.45 96.6725 13.71C97.0625 13.97 97.5325 14.1 98.0825 14.1ZM103.294 15V7.5H104.419V8.67C104.689 8.31 105.019 8.005 105.409 7.755C105.799 7.505 106.299 7.38 106.909 7.38C107.429 7.38 107.914 7.505 108.364 7.755C108.824 7.995 109.194 8.36 109.474 8.85C109.764 9.33 109.909 9.925 109.909 10.635V15H108.784V10.665C108.784 9.985 108.589 9.44 108.199 9.03C107.809 8.61 107.304 8.4 106.684 8.4C106.264 8.4 105.884 8.495 105.544 8.685C105.204 8.875 104.929 9.145 104.719 9.495C104.519 9.835 104.419 10.23 104.419 10.68V15H103.294ZM112.425 15V8.49H110.895V7.5H112.425V4.815H113.55V7.5H115.275V8.49H113.55V15H112.425ZM116.462 6.24V4.77H117.677V6.24H116.462ZM116.507 15V7.5H117.632V15H116.507Z" fill="#7D7D7D"/>
</svg>
