<svg width="30" height="30" viewBox="0 0 39 34" fill="none" xmlns="http://www.w3.org/2000/svg">
<path d="M22.078 15.6643C22.073 15.783 22.0552 15.918 22.0247 16.0693C22.0039 16.2195 21.9625 16.3624 21.9005 16.4979C21.847 16.6226 21.7723 16.7352 21.6765 16.8355C21.5794 16.9262 21.4582 16.9806 21.3128 16.9985C21.2062 17.0117 21.0984 17.0151 20.9894 17.0089C20.8792 16.993 20.766 16.9922 20.6497 17.0066C20.6012 17.0125 20.5503 17.0385 20.4969 17.0845C20.452 17.1195 20.4054 17.14 20.3569 17.146C20.3085 17.152 20.2642 17.1525 20.2243 17.1476C20.1928 17.1318 20.1528 17.1269 20.1044 17.1329C20.0753 17.1365 20.0232 17.1528 19.9481 17.1817C19.8729 17.2107 19.7929 17.2402 19.7081 17.2704C19.6232 17.3005 19.5439 17.3349 19.4699 17.3736C19.3948 17.4025 19.3433 17.4236 19.3154 17.4369C19.0645 17.5564 18.8123 17.6663 18.559 17.7664C18.3057 17.8666 18.0397 17.9437 17.761 17.9978C17.7005 17.9855 17.6109 17.9769 17.4922 17.9719C17.3723 17.9572 17.2833 17.9534 17.2251 17.9606C17.1088 17.9749 17.0372 18.033 17.0104 18.1347C16.9933 18.2352 16.9393 18.3157 16.8484 18.3761C16.7404 18.4583 16.5998 18.515 16.4266 18.5462C16.2533 18.5774 16.0806 18.6135 15.9086 18.6544C15.7365 18.6953 15.5765 18.7544 15.4286 18.8317C15.2892 18.8981 15.1946 19.0082 15.1447 19.162C15.095 19.1583 15.0411 19.16 14.983 19.1672C14.9333 19.1635 14.8794 19.1652 14.8213 19.1724C14.5111 19.2107 14.2281 19.3095 13.9723 19.469C13.7153 19.6188 13.4522 19.7595 13.1831 19.8911C13.2423 19.9724 13.2894 20.0748 13.3243 20.1984C13.3593 20.322 13.3942 20.4456 13.4292 20.5692C13.4629 20.6832 13.5015 20.7965 13.5449 20.9092C13.5968 21.011 13.67 21.0856 13.7644 21.133C13.7716 21.1912 13.763 21.2414 13.7387 21.2838C13.7241 21.3249 13.7041 21.3618 13.6786 21.3945L13.5894 21.5088C13.5639 21.5415 13.5499 21.5875 13.5474 21.6469C13.5327 21.7668 13.5331 21.8897 13.5486 22.0157C13.563 22.132 13.5059 22.2276 13.3774 22.3025C13.3907 22.3304 13.4021 22.3831 13.4117 22.4606C13.4236 22.5575 13.4205 22.6514 13.4022 22.7422C13.3839 22.833 13.3861 22.9312 13.409 23.0366C13.2669 23.2411 13.1497 23.4474 13.0573 23.6556C12.9747 23.8626 12.918 24.0812 12.8874 24.3113C12.573 24.7141 12.249 25.1182 11.9152 25.5234C11.5924 25.9372 11.2532 26.3382 10.8977 26.7265C10.5519 27.1136 10.1892 27.483 9.80949 27.8349C9.43101 28.1965 9.03321 28.5211 8.61608 28.8088L8.51431 28.8213C8.29139 28.8488 8.12172 28.9091 8.0053 29.0022C7.88887 29.0953 7.73732 29.1829 7.55066 29.265C7.40049 29.2442 7.22364 29.2463 7.02011 29.2714C6.9038 29.2858 6.78325 29.3056 6.65845 29.3308C6.54334 29.3549 6.42279 29.3747 6.29679 29.3902C6.13203 29.4106 5.97941 29.4097 5.83893 29.3877C5.70815 29.3645 5.57677 29.3364 5.44479 29.3035C5.32251 29.2694 5.19537 29.2359 5.06339 29.203C4.93142 29.1701 4.79154 29.1529 4.64377 29.1515C3.96869 28.6247 3.40705 27.9807 2.95885 27.2193C2.51184 26.4676 2.2363 25.6701 2.13223 24.8269C2.08438 24.4392 2.09103 24.0547 2.15218 23.6732C2.21214 23.2821 2.2188 22.8975 2.17214 22.5195C2.30353 22.1491 2.4095 21.7719 2.49004 21.3881C2.58027 21.003 2.6705 20.618 2.76074 20.2329C2.85097 19.8479 2.95209 19.4713 3.0641 19.1033C3.1846 18.7243 3.33657 18.3612 3.52001 18.0138C3.53737 17.7558 3.58799 17.5282 3.67188 17.3309C3.75576 17.1336 3.84695 16.9157 3.94543 16.6772C3.91911 16.464 3.9388 16.2648 4.0045 16.0796C4.07869 15.8834 4.11172 15.6727 4.10359 15.4474C4.24072 15.2829 4.34638 15.1026 4.42057 14.9065C4.49477 14.7104 4.56351 14.51 4.62682 14.3054C4.69012 14.1008 4.76431 13.9047 4.84939 13.7171C4.94297 13.5186 5.0789 13.3443 5.25719 13.1944C5.2682 13.1242 5.26892 13.0503 5.25935 12.9728C5.25828 12.8843 5.27414 12.8135 5.30692 12.7603L5.57095 12.3882C5.65232 12.2502 5.724 12.1135 5.78599 11.9779C5.85647 11.8315 5.93359 11.6989 6.01735 11.5804C6.06833 11.515 6.12534 11.4588 6.1884 11.4117C6.25146 11.3645 6.30423 11.3137 6.34671 11.2593C6.38919 11.2048 6.39595 11.14 6.367 11.0649C6.34774 10.9886 6.35934 10.9232 6.40182 10.8687C6.41882 10.8469 6.4455 10.824 6.48187 10.7998C6.51825 10.7756 6.54978 10.7521 6.57646 10.7291C6.69169 10.6263 6.78754 10.5259 6.864 10.4279C6.94047 10.3299 7.05384 10.252 7.20413 10.1941C7.32666 10.0707 7.43465 9.94915 7.52811 9.82938C7.63125 9.70841 7.7356 9.59713 7.84113 9.49555C7.94667 9.39397 8.0643 9.31057 8.194 9.24536C8.32252 9.17046 8.48854 9.12045 8.69207 9.09533C8.73084 9.09055 8.77021 9.09061 8.81017 9.09551C8.84894 9.09073 8.88771 9.08594 8.92648 9.08116C9.36931 9.40041 9.67208 9.82059 9.8348 10.3417C9.74493 10.4905 9.67565 10.6467 9.62694 10.8101C9.58793 10.9724 9.53923 11.1358 9.48083 11.3005C9.32324 11.379 9.17893 11.4853 9.04791 11.6196C8.91569 11.7441 8.78406 11.8735 8.65303 12.0078C8.5317 12.1408 8.39888 12.2606 8.25457 12.3669C8.11996 12.4721 7.96058 12.536 7.77643 12.5588C7.70726 12.6362 7.59502 12.7632 7.43971 12.9398C7.29288 13.1055 7.13757 13.2821 6.97375 13.4696C6.81963 13.6559 6.67401 13.8313 6.53688 13.9958C6.40944 14.1592 6.32993 14.2723 6.29833 14.3352C6.27524 14.3873 6.25639 14.4339 6.24179 14.4751C6.22719 14.5162 6.21319 14.5622 6.19979 14.6131L5.90075 15.2994C5.73298 15.694 5.55977 16.0844 5.38111 16.4705C5.20126 16.8469 5.05288 17.2392 4.93596 17.6472C4.87996 17.8312 4.83849 18.0134 4.81156 18.1939C4.78464 18.3743 4.7589 18.5645 4.73437 18.7643C4.72216 18.8248 4.70511 18.886 4.68321 18.9477C4.66131 19.0094 4.64366 19.0657 4.63026 19.1166C4.54877 19.3333 4.48486 19.5331 4.43855 19.7159C4.39224 19.8987 4.37859 20.107 4.39761 20.3408C4.2223 20.9135 4.06212 21.4892 3.91708 22.068C3.78054 22.6359 3.69485 23.2171 3.66001 23.8118C3.74209 23.9985 3.79084 24.1942 3.80627 24.3989C3.8302 24.5928 3.85412 24.7866 3.87805 24.9804C3.90795 25.2227 3.94701 25.4196 3.99523 25.5711C4.05433 25.7311 4.12074 25.8705 4.19444 25.9893C4.27903 26.1166 4.36847 26.2434 4.46276 26.3695C4.55824 26.5053 4.66155 26.6647 4.77271 26.8478C4.93244 26.9462 5.07824 27.0512 5.2101 27.1628C5.34315 27.2841 5.47255 27.4158 5.5983 27.5577C5.98933 27.6964 6.37384 27.7424 6.75183 27.6957C7.02321 27.6622 7.29405 27.5845 7.56435 27.4626C7.83466 27.3407 8.09228 27.1957 8.33722 27.0278C8.59305 26.8683 8.83739 26.6954 9.07024 26.5093C9.30309 26.3231 9.52685 26.1429 9.74152 25.9689C10.1187 25.6763 10.4401 25.371 10.7059 25.0528C10.9717 24.7346 11.2066 24.4055 11.4106 24.0655C11.6243 23.7242 11.8162 23.366 11.9864 22.9908C12.1554 22.6058 12.3316 22.2003 12.5152 21.7743C12.5189 21.7246 12.5311 21.6641 12.5518 21.5926L12.6121 21.3638C12.6316 21.2827 12.6475 21.2118 12.6597 21.1513C12.6804 21.0798 12.6896 21.0344 12.6872 21.0151C12.6776 20.9375 12.6516 20.8866 12.6093 20.8623C12.5754 20.8271 12.5561 20.7902 12.5513 20.7514C12.5417 20.6739 12.5545 20.6182 12.5897 20.5843C12.6249 20.5504 12.6649 20.516 12.7098 20.4809C12.7644 20.4447 12.8086 20.4048 12.8426 20.3612C12.8863 20.3165 12.9015 20.2408 12.8884 20.1342C12.8678 20.1269 12.8333 20.1262 12.7848 20.1322C12.7364 20.1382 12.6885 20.149 12.6412 20.1647C12.594 20.1803 12.5461 20.1912 12.4977 20.1971C12.3813 20.2115 12.2796 20.1847 12.1925 20.1167C12.1465 20.1421 12.1022 20.182 12.0597 20.2364C12.016 20.2812 11.973 20.3308 11.9305 20.3852C11.8977 20.4385 11.8643 20.4869 11.8303 20.5304C11.7963 20.574 11.7648 20.5975 11.7357 20.6011C11.6873 20.6071 11.6473 20.6022 11.6158 20.5864C11.5941 20.5694 11.5638 20.5633 11.525 20.5681C11.3603 20.5884 11.2197 20.6452 11.1032 20.7382C10.9868 20.8313 10.8589 20.9111 10.7195 20.9775C10.6904 20.9811 10.6613 20.9847 10.6323 20.9882C10.602 20.9821 10.5723 20.9809 10.5432 20.9845C10.4366 20.9976 10.3324 21.0302 10.2306 21.0821C10.1373 21.1231 10.0445 21.169 9.95238 21.2198C9.86994 21.2693 9.78205 21.3146 9.68872 21.3556C9.59538 21.3967 9.49966 21.4183 9.40154 21.4206C9.19789 21.5244 9.00937 21.6313 8.83598 21.7413C8.67229 21.8501 8.47295 21.9091 8.23794 21.9184C8.17369 21.9559 8.10518 21.9988 8.03243 22.0471C7.96818 22.0846 7.90512 22.1317 7.84325 22.1885C7.78749 22.2151 7.74508 22.2302 7.716 22.2338C7.66754 22.2397 7.62578 22.2203 7.59072 22.1754C7.52395 22.2722 7.42996 22.3478 7.30875 22.4021C7.18634 22.4467 7.05909 22.492 6.92699 22.5378C6.79369 22.5739 6.66644 22.6191 6.54522 22.6735C6.43251 22.7169 6.34821 22.7913 6.29233 22.8965C6.17495 22.8225 6.04357 22.7944 5.89819 22.8124C5.7528 22.8303 5.61586 22.8767 5.48735 22.9516C5.35764 23.0168 5.21525 23.059 5.06017 23.0781C5.00202 23.0853 4.96206 23.0804 4.94028 23.0634C4.88835 22.9616 4.83158 22.8604 4.76996 22.7597C4.70834 22.6591 4.62124 22.5911 4.50864 22.5558C4.4761 22.4516 4.44415 22.3522 4.41281 22.2577C4.38996 22.1523 4.37255 22.0511 4.36059 21.9542C4.32829 21.6925 4.37652 21.4455 4.50527 21.2131C4.63498 21.1479 4.76588 21.0924 4.89799 21.0466C5.03858 20.9899 5.17373 20.9289 5.30344 20.8637C5.41245 20.8699 5.52085 20.8713 5.62866 20.8678C5.73647 20.8644 5.84368 20.8561 5.9503 20.8429C6.34767 20.7939 6.72937 20.6975 7.0954 20.554C7.46023 20.4007 7.81962 20.2432 8.17357 20.0814C8.50932 19.9317 8.85112 19.7912 9.19896 19.6597C9.5468 19.5282 9.89345 19.387 10.2389 19.2361C10.5674 19.107 10.8898 18.9688 11.2061 18.8216C11.5213 18.6646 11.8564 18.5494 12.2114 18.4761C12.4237 18.2826 12.691 18.1365 13.0134 18.0376C13.3454 17.9376 13.6478 17.8363 13.9205 17.7338C14.3532 17.5722 14.781 17.4111 15.204 17.2507C15.6258 17.0805 16.059 16.9237 16.5038 16.7803C16.9946 16.6115 17.4679 16.4202 17.9237 16.2065C18.3892 15.9916 18.8534 15.7671 19.3165 15.5328L19.4619 15.5148C19.6267 15.4945 19.7939 15.4542 19.9635 15.3939C20.1332 15.3336 20.3053 15.2927 20.4797 15.2711C20.5282 15.2652 20.5676 15.2652 20.5978 15.2713C20.6366 15.2665 20.6754 15.2618 20.7141 15.257C20.7432 15.2534 20.8135 15.225 20.925 15.1719C21.0354 15.1091 21.1136 15.065 21.1596 15.0396C21.3024 15.1598 21.4579 15.2636 21.6261 15.351C21.7943 15.4385 21.945 15.5429 22.078 15.6643ZM38.1642 19.7155C38.1737 19.793 38.1512 19.8499 38.0967 19.8862C38.0518 19.9212 38.0505 19.9903 38.0927 20.0933C38.0164 20.1126 37.9533 20.1597 37.9035 20.2347C37.8538 20.3097 37.7901 20.352 37.7126 20.3616C37.6641 20.3676 37.6224 20.3482 37.5873 20.3033C37.5763 20.3735 37.5435 20.4268 37.4889 20.463C37.4441 20.4981 37.3937 20.5289 37.338 20.5554C37.2822 20.582 37.2271 20.6134 37.1725 20.6497C37.1179 20.6859 37.0846 20.7343 37.0723 20.7949L36.9997 20.8038C36.8834 20.8182 36.7973 20.878 36.7414 20.9833C36.6952 21.0874 36.6285 21.1448 36.5412 21.1556C36.5122 21.1592 36.4922 21.1567 36.4813 21.1482C36.434 21.1639 36.4182 21.1954 36.4339 21.2427C36.4508 21.2996 36.441 21.3402 36.4047 21.3643L36.332 21.3733C36.08 21.4044 35.8297 21.4894 35.5812 21.6283C35.3327 21.7672 35.0811 21.9213 34.8264 22.0905C34.5815 22.2585 34.3257 22.418 34.059 22.569C33.8031 22.7284 33.5371 22.8449 33.2608 22.9184C33.2098 22.9837 33.1425 23.0363 33.0589 23.0761C32.9861 23.1245 32.9025 23.1643 32.808 23.1957C32.7134 23.227 32.6189 23.2584 32.5244 23.2897C32.4407 23.3295 32.3686 23.3827 32.3079 23.4493C32.068 23.4986 31.8311 23.5721 31.5971 23.6698C31.3632 23.7676 31.1287 23.8605 30.8936 23.9485C30.6693 24.0451 30.4336 24.1283 30.1864 24.1982C29.9501 24.2765 29.7047 24.3216 29.4503 24.3333C29.38 24.401 29.2981 24.4554 29.2048 24.4964C29.1224 24.546 29.046 24.6046 28.9756 24.6723C28.571 24.6632 28.1683 24.6687 27.7673 24.6886C27.3761 24.7074 26.9848 24.6868 26.5937 24.6268C26.5901 24.5978 26.578 24.5796 26.5574 24.5723C26.5369 24.565 26.5114 24.5583 26.4812 24.5522C26.4618 24.5546 26.4412 24.5473 26.4194 24.5303C26.3988 24.523 26.3958 24.4987 26.4104 24.4576C26.3268 24.4974 26.2511 24.5215 26.1832 24.5299C26.0863 24.5419 25.9864 24.5296 25.8835 24.4931C25.7903 24.4554 25.6868 24.4141 25.573 24.3691C25.4689 24.3229 25.3599 24.2773 25.2462 24.2323C25.1336 24.197 25.0143 24.1871 24.8883 24.2027C24.8012 24.1347 24.7189 24.0661 24.6415 23.997C24.5738 23.9266 24.5182 23.8351 24.4748 23.7224C24.4348 23.7175 24.3912 23.7228 24.3439 23.7385C24.3063 23.753 24.273 23.762 24.2439 23.7656C24.1858 23.7728 24.1543 23.757 24.1495 23.7182C23.9281 23.598 23.7635 23.4608 23.656 23.3068C23.5484 23.1528 23.4282 22.9758 23.2952 22.7757C23.2578 22.7115 23.2118 22.6581 23.1574 22.6156C23.1138 22.5817 23.0788 22.5368 23.0522 22.481C23.0015 22.3889 22.9647 22.2901 22.9418 22.1847C22.919 22.0793 22.8967 21.9787 22.8751 21.883C22.8619 21.7764 22.8348 21.6764 22.7938 21.5831C22.7612 21.4788 22.7057 21.3873 22.6271 21.3085C22.601 20.9378 22.5943 20.5647 22.607 20.1892C22.6294 19.8125 22.6663 19.4341 22.7178 19.0538C22.7362 18.8843 22.7601 18.7189 22.7894 18.5579C22.8187 18.3968 22.8426 18.2315 22.861 18.062C22.8635 18.0026 22.8733 17.9621 22.8903 17.9403C22.9158 17.9076 22.9376 17.8853 22.9558 17.8732L23.0086 17.8224C23.0256 17.8006 23.0365 17.7697 23.0414 17.7298L23.0967 17.2211C23.1348 16.8917 23.1983 16.569 23.2872 16.253C23.3761 15.937 23.5116 15.6398 23.6937 15.3615C23.6832 15.1168 23.7084 14.8825 23.7693 14.6585C23.8387 14.4236 23.919 14.1972 24.0102 13.9793C24.1002 13.7518 24.1908 13.529 24.282 13.3111C24.3731 13.0932 24.4383 12.8638 24.4774 12.6228L24.4593 12.5955C24.4545 12.5568 24.4715 12.535 24.5103 12.5302C24.5575 12.5145 24.5909 12.5055 24.6103 12.5031C24.6008 12.3468 24.6186 12.2118 24.6636 12.098C24.7171 11.9733 24.7717 11.8584 24.8276 11.7531C24.8932 11.6466 24.9485 11.5364 24.9935 11.4226C25.047 11.298 25.069 11.1575 25.0595 11.0012C25.2305 10.8719 25.3695 10.7219 25.4763 10.5513C25.5917 10.3698 25.6973 10.1894 25.7933 10.0103C25.8978 9.82031 26.0083 9.6394 26.1248 9.46758C26.2402 9.28607 26.3888 9.13489 26.5707 9.01404C26.6119 8.94991 26.6163 8.86573 26.5838 8.76151C26.8567 8.50151 27.1423 8.26454 27.4406 8.05061C27.739 7.83667 28.0143 7.59606 28.2666 7.32875L28.79 7.26416C28.9041 7.15168 29.0386 7.08588 29.1937 7.06674C29.31 7.05238 29.4244 7.06286 29.537 7.09816C29.6593 7.13226 29.7731 7.17726 29.8784 7.23314C29.9922 7.27813 30.1066 7.32797 30.2216 7.38266C30.3354 7.42765 30.4473 7.45811 30.5576 7.47403C30.6821 7.60625 30.7757 7.76689 30.8384 7.95595C30.9096 8.13411 30.9796 8.30259 31.0484 8.46137C30.9935 8.73383 30.9737 9.01178 30.989 9.29525C31.0031 9.56902 31.0027 9.84458 30.9877 10.1219C30.9294 10.2079 30.882 10.3023 30.8455 10.4052C30.8078 10.4984 30.7659 10.597 30.7197 10.7011C30.682 10.7943 30.6395 10.8881 30.5921 10.9825C30.5435 11.0673 30.4737 11.1398 30.3828 11.2003C30.34 11.4909 30.2463 11.7288 30.1019 11.9139C29.9575 12.099 29.8215 12.3125 29.6939 12.5546C29.5605 12.6695 29.4114 12.7371 29.2466 12.7574C29.1109 12.7742 28.9862 12.76 28.8724 12.715C28.7574 12.6604 28.6503 12.5899 28.5511 12.5038C28.4508 12.4079 28.3643 12.3054 28.2918 12.1963C28.2278 12.0763 28.1741 11.9599 28.1306 11.8472C28.1734 11.6353 28.2584 11.4477 28.3859 11.2844C28.523 11.1198 28.6601 10.9553 28.7973 10.7908C28.9344 10.6263 29.0509 10.4545 29.1469 10.2753C29.2429 10.0962 29.2765 9.89036 29.2478 9.65775C29.2454 9.63836 29.2382 9.61958 29.2261 9.60139C29.2237 9.582 29.2213 9.56262 29.2189 9.54324C29.2141 9.50447 29.2245 9.46875 29.25 9.43609C29.2754 9.40342 29.3015 9.3756 29.3282 9.35263L29.4065 9.26917C29.432 9.23651 29.4423 9.20079 29.4375 9.16202C29.4327 9.12325 29.4086 9.08688 29.365 9.0529C29.0003 9.12743 28.727 9.22512 28.5451 9.34596C28.373 9.46561 28.2407 9.59017 28.1485 9.71963C28.0562 9.8491 27.9736 9.97737 27.9008 10.1044C27.8364 10.2206 27.7297 10.3125 27.5806 10.3801C27.5611 10.4612 27.5258 10.5345 27.4748 10.5998C27.4324 10.6542 27.3856 10.7141 27.3347 10.7795C27.2825 10.8351 27.2364 10.8998 27.1963 10.9736C27.1659 11.0463 27.1518 11.1317 27.1541 11.2298L26.8924 11.2621C26.8644 11.3541 26.817 11.4485 26.7502 11.5453C26.692 11.6312 26.6289 11.7177 26.5609 11.8048C26.5026 11.8907 26.4504 11.9857 26.4042 12.0898C26.3665 12.183 26.3639 12.2817 26.3965 12.386C26.2946 12.4379 26.22 12.5111 26.1726 12.6055C26.1349 12.6987 26.0712 12.7803 25.9815 12.8505L25.9923 12.9377C26.0018 13.0152 25.9963 13.0897 25.9756 13.1611C25.9548 13.2326 25.959 13.3059 25.9879 13.381C25.8848 13.502 25.8143 13.6484 25.7765 13.8204C25.7472 13.9814 25.7118 14.1334 25.6704 14.2763C25.5431 14.3608 25.4624 14.4643 25.4283 14.5866C25.3942 14.7089 25.3867 14.8475 25.4058 15.0026C25.2784 15.1659 25.1685 15.3517 25.0761 15.5599C24.9837 15.7681 24.9016 15.9799 24.8298 16.1954C24.7677 16.4097 24.7111 16.6283 24.6598 16.8511C24.6086 17.0739 24.5508 17.2827 24.4863 17.4776L24.5383 17.8992C24.4217 18.0711 24.3475 18.2672 24.3157 18.4876C24.2924 18.6971 24.2376 18.8908 24.1513 19.0687C24.1451 19.1777 24.1485 19.2856 24.1617 19.3922C24.1845 19.4976 24.2025 19.6036 24.2157 19.7102C24.2301 19.8265 24.2353 19.9489 24.2315 20.0773C24.2277 20.2056 24.2081 20.3261 24.1728 20.4387C24.2295 20.5793 24.2801 20.7502 24.3246 20.9513C24.3679 21.1428 24.4264 21.3373 24.4999 21.5348C24.5723 21.7227 24.6623 21.8936 24.7699 22.0476C24.8762 22.1919 25.0154 22.283 25.1873 22.3208C25.2524 22.5293 25.3642 22.6778 25.5228 22.7665C25.6922 22.8636 25.878 22.9342 26.0802 22.9781C26.2825 23.022 26.4883 23.0557 26.6978 23.079C26.9086 23.112 27.0968 23.1626 27.2627 23.2307C27.3172 23.1944 27.3833 23.1715 27.4608 23.1619C27.5384 23.1524 27.6074 23.1537 27.6679 23.1659C27.7382 23.1769 27.8133 23.1873 27.8932 23.1971C28.0265 23.161 28.1901 23.131 28.3839 23.107C28.5874 23.0819 28.7898 23.0471 28.9909 23.0026C29.1932 22.9678 29.3793 22.9202 29.5489 22.8599C29.7186 22.7996 29.8502 22.7096 29.9436 22.5898C30.0115 22.5815 30.0575 22.5955 30.0816 22.6318C30.1155 22.667 30.1663 22.6804 30.2342 22.672C30.302 22.6637 30.4014 22.6317 30.5323 22.5762C30.6644 22.5304 30.8002 22.4743 30.9396 22.4079C31.0802 22.3511 31.2105 22.2908 31.3305 22.2268C31.4602 22.1616 31.5517 22.106 31.6051 22.06C31.6354 22.0661 31.665 22.0674 31.6941 22.0638L31.7959 22.0513C31.9316 22.0345 32.0546 21.9947 32.1649 21.9319C32.2752 21.8691 32.3994 21.839 32.5375 21.8416C32.9558 21.5637 33.3826 21.3142 33.8178 21.0932C34.2639 20.8807 34.7166 20.6822 35.1759 20.4976C35.2233 20.4032 35.2834 20.3318 35.3562 20.2835C35.4386 20.2339 35.5271 20.1935 35.6216 20.1621C35.7149 20.1211 35.8095 20.0898 35.9052 20.0681C35.9997 20.0368 36.0888 20.0012 36.1724 19.9613C36.227 19.9251 36.2713 19.8852 36.3053 19.8416C36.3477 19.7872 36.4011 19.7412 36.4654 19.7038C36.5296 19.6663 36.5999 19.638 36.6763 19.6187C36.7623 19.5982 36.8435 19.5784 36.9198 19.5591C37.0047 19.529 37.0792 19.4952 37.1435 19.4577C37.2174 19.4191 37.2744 19.3628 37.3145 19.289C37.4574 19.3304 37.6008 19.3767 37.7449 19.4278C37.8987 19.4777 38.0318 19.5596 38.1442 19.6737L38.1642 19.7155Z" fill="#A65AC9"/>
</svg>
