<svg width="35" height="35" viewBox="0 0 35 35" fill="none" xmlns="http://www.w3.org/2000/svg">
<path d="M17.25 1V3.5V1ZM17.25 31V33.5V31ZM3.5 17.25H1H3.5ZM7.525 26.975L5.75 28.75L7.525 26.975ZM7.525 7.525L5.75 5.75L7.525 7.525ZM17.25 8.5C14.9294 8.5 12.7038 9.42187 11.0628 11.0628C9.42187 12.7038 8.5 14.9294 8.5 17.25C8.5 19.5706 9.42187 21.7962 11.0628 23.4372C12.7038 25.0781 14.9294 26 17.25 26V8.5ZM31 17.25H33.5H31ZM26.975 26.975L28.75 28.75L26.975 26.975ZM26.975 7.525L28.75 5.75L26.975 7.525Z" fill="#7C75CD"/>
<path d="M17.25 1V3.5M17.25 31V33.5M3.5 17.25H1M7.525 26.975L5.75 28.75M7.525 7.525L5.75 5.75M31 17.25H33.5M26.975 26.975L28.75 28.75M26.975 7.525L28.75 5.75M17.25 8.5C14.9294 8.5 12.7038 9.42187 11.0628 11.0628C9.42187 12.7038 8.5 14.9294 8.5 17.25C8.5 19.5706 9.42187 21.7962 11.0628 23.4372C12.7038 25.0781 14.9294 26 17.25 26V8.5Z" stroke="#646464" stroke-linecap="round" stroke-linejoin="round"/>
</svg>
