<svg width="17" height="17" viewBox="0 0 17 17" fill="none" xmlns="http://www.w3.org/2000/svg">
<path d="M0.76462 0.693494C0.839268 0.632504 0.929954 0.594392 1.02576 0.583747C1.12157 0.573102 1.21841 0.590378 1.30462 0.633494L16.3046 8.13349C16.3878 8.17496 16.4578 8.23881 16.5067 8.31786C16.5557 8.3969 16.5816 8.48803 16.5816 8.58099C16.5816 8.67396 16.5557 8.76508 16.5067 8.84413C16.4578 8.92318 16.3878 8.98703 16.3046 9.02849L1.30462 16.5285C1.21849 16.5716 1.12174 16.589 1.02599 16.5784C0.930242 16.5679 0.839577 16.5299 0.764897 16.4691C0.690218 16.4082 0.634702 16.3271 0.605027 16.2355C0.575352 16.1438 0.57278 16.0456 0.59762 15.9525L2.56362 8.58149L0.59762 1.21049C0.57266 1.11739 0.575144 1.01906 0.604773 0.927333C0.634401 0.835608 0.689912 0.754403 0.76462 0.693494ZM3.46462 9.08149L1.85062 15.1375L14.9626 8.58149L1.84962 2.02549L3.46462 8.08149H10.0806C10.2132 8.08149 10.3404 8.13417 10.4342 8.22794C10.5279 8.32171 10.5806 8.44889 10.5806 8.58149C10.5806 8.7141 10.5279 8.84128 10.4342 8.93505C10.3404 9.02882 10.2132 9.08149 10.0806 9.08149H3.46462Z" fill="#B06DCF"/>
</svg>
